<svg width="200" height="200" xmlns="http://www.w3.org/2000/svg">
 <g id="Layer_1">
  <title>Layer 1</title>
  <g stroke="null">
   <g stroke="null" fill="#000000" transform="translate(0 235) scale(0.1 -0.1)">
    <path stroke="null" d="m1425.15967,2145.8177c-28.02034,-16.8122 -88.54427,-96.38996 -88.54427,-118.80623c0,-5.60407 -4.48325,-11.20813 -10.08732,-11.20813c-5.60407,0 -13.44976,-10.08732 -17.93302,-21.29546c-6.72488,-23.53708 -78.45694,-61.64474 -99.7524,-53.79905c-6.72488,3.36244 -23.53708,25.77871 -34.74522,51.55742c-12.32895,24.6579 -25.77871,45.95335 -29.14115,45.95335c-4.48325,0 -10.08732,15.69139 -13.44976,33.6244c-8.96651,44.83254 -35.86603,43.71173 -63.88637,-2.24163c-11.20813,-20.17464 -25.77871,-42.59091 -31.38278,-49.31579c-6.72488,-6.72488 -14.57058,-35.86603 -17.93302,-63.88637c-10.08732,-75.0945 -11.20813,-76.21532 -94.14833,-131.13518c-41.4701,-28.02034 -79.57776,-56.04067 -86.30264,-62.76556c-17.93302,-20.17464 -196.14236,-59.40311 -268.99524,-60.52393c-50.43661,0 -61.64474,-17.93302 -61.64474,-97.51077c0,-107.59809 19.05383,-155.79307 90.78589,-229.76677c35.86603,-35.86603 69.49044,-65.00718 75.0945,-65.00718c6.72488,0 19.05383,-7.84569 28.02034,-16.8122c8.96651,-8.96651 33.6244,-25.77871 53.79905,-36.98685c21.29546,-11.20813 39.22847,-31.38278 41.4701,-44.83254c2.24163,-13.44976 8.96651,-24.6579 14.57058,-24.6579c14.57058,0 12.32895,-31.38278 -3.36244,-41.4701c-33.6244,-21.29546 -526.78234,-38.10766 -600.75603,-20.17464c-15.69139,3.36244 -24.6579,14.57058 -24.6579,29.14115c0,12.32895 -14.57058,36.98685 -32.50359,54.91986c-25.77871,26.89952 -36.98685,31.38278 -63.88637,23.53708c-50.43661,-13.44976 -75.0945,-57.16149 -78.45694,-138.98087c-2.24163,-62.76556 1.12081,-76.21532 22.41627,-96.38996c29.14115,-28.02034 137.86006,-71.73206 247.69978,-100.87321c211.83375,-56.04067 239.85409,-68.36962 258.90792,-108.71891c23.53708,-49.31579 36.98685,-56.04067 133.37681,-65.00718c131.13518,-12.32895 136.73925,-14.57058 143.46413,-54.91986c2.24163,-20.17464 0,-97.51077 -6.72488,-172.60528c-6.72488,-75.0945 -8.96651,-141.2225 -3.36244,-145.70575c11.20813,-11.20813 29.14115,19.05383 29.14115,52.67823c0,15.69139 5.60407,35.86603 12.32895,44.83254c8.96651,12.32895 10.08732,5.60407 5.60407,-26.89952c-10.08732,-71.73206 3.36244,-84.06101 94.14833,-84.06101c42.59091,0 78.45694,1.12081 78.45694,2.24163c0,1.12081 3.36244,82.9402 5.60407,181.57179c6.72488,208.47131 14.57058,297.01557 26.89952,297.01557c17.93302,0 90.78589,-56.04067 131.13518,-100.87321c41.4701,-45.95335 43.71173,-47.07417 60.52393,-24.6579c10.08732,12.32895 28.02034,24.6579 41.4701,29.14115c12.32895,4.48325 45.95335,30.26196 73.97369,57.16149c28.02034,28.02034 52.67823,50.43661 53.79905,50.43661c2.24163,0 4.48325,-110.96054 4.48325,-245.45815l0,-246.57897l89.66508,2.24163l89.66508,2.24163l5.60407,39.22847c3.36244,22.41627 12.32895,39.22847 20.17464,38.10766c6.72488,-1.12081 21.29546,-2.24163 30.26196,-2.24163c11.20813,-2.24163 16.8122,-14.57058 16.8122,-41.4701c0,-21.29546 5.60407,-39.22847 11.20813,-39.22847c6.72488,0 11.20813,15.69139 11.20813,33.6244c0,31.38278 3.36244,33.6244 42.59091,33.6244c22.41627,0 56.04067,8.96651 75.0945,20.17464c29.14115,17.93302 32.50359,25.77871 30.26196,66.128c-3.36244,44.83254 0,49.31579 105.35647,155.79307c115.44379,116.5646 156.91389,184.93423 165.8804,271.23686c2.24163,25.77871 10.08732,53.79905 16.8122,62.76556c8.96651,10.08732 8.96651,24.6579 2.24163,43.71173c-11.20813,28.02034 1.12081,52.67823 26.89952,52.67823c7.84569,0 22.41627,10.08732 33.6244,22.41627c20.17464,22.41627 19.05383,22.41627 -13.44976,22.41627c-24.6579,0 -49.31579,13.44976 -87.42345,49.31579l-53.79905,49.31579l34.74522,17.93302c19.05383,10.08732 40.34929,17.93302 47.07417,17.93302c19.05383,0 89.66508,76.21532 89.66508,95.26915c0,8.96651 5.60407,16.8122 11.20813,16.8122c6.72488,0 11.20813,10.08732 11.20813,23.53708c0,17.93302 -4.48325,21.29546 -19.05383,15.69139c-50.43661,-21.29546 -122.16867,-19.05383 -163.63877,4.48325c-30.26196,16.8122 -61.64474,23.53708 -112.08135,23.53708l-69.49044,0l-50.43661,-61.64474c-28.02034,-33.6244 -52.67823,-57.16149 -57.16149,-52.67823c-3.36244,4.48325 -12.32895,51.55742 -19.05383,105.35647c-11.20813,87.42345 -17.93302,106.47728 -65.00718,179.33016c-29.14115,44.83254 -57.16149,84.06101 -61.64474,87.42345c-20.17464,13.44976 -54.91986,180.45097 -61.64474,298.13639c-4.48325,70.61125 -13.44976,135.61843 -20.17464,144.58494c-17.93302,24.6579 -75.0945,30.26196 -108.71891,12.32895zm76.21532,-20.17464c6.72488,-7.84569 14.57058,-57.16149 19.05383,-108.71891c15.69139,-197.26317 60.52393,-365.3852 110.96054,-421.42587c52.67823,-58.2823 77.33613,-119.92704 82.9402,-208.47131c5.60407,-75.0945 4.48325,-88.54427 -11.20813,-88.54427c-10.08732,0 -47.07417,-20.17464 -84.06101,-44.83254c-123.28948,-81.81938 -187.17585,-104.23565 -302.61964,-109.83972c-69.49044,-3.36244 -108.71891,-1.12081 -117.68542,7.84569c-6.72488,6.72488 -23.53708,12.32895 -36.98685,12.32895c-14.57058,0 -29.14115,5.60407 -32.50359,11.20813c-3.36244,6.72488 -19.05383,11.20813 -33.6244,11.20813c-14.57058,0 -56.04067,7.84569 -91.90671,17.93302c-35.86603,10.08732 -84.06101,21.29546 -108.71891,23.53708c-26.89952,4.48325 -53.79905,16.8122 -72.85288,36.98685c-15.69139,16.8122 -48.19498,36.98685 -70.61125,43.71173c-23.53708,7.84569 -42.59091,17.93302 -42.59091,23.53708c0,5.60407 -10.08732,13.44976 -22.41627,16.8122c-41.4701,13.44976 -24.6579,30.26196 22.41627,22.41627c45.95335,-7.84569 94.14833,1.12081 84.06101,15.69139c-2.24163,5.60407 -35.86603,12.32895 -71.73206,16.8122c-36.98685,4.48325 -70.61125,12.32895 -73.97369,17.93302c-4.48325,6.72488 -14.57058,11.20813 -23.53708,11.20813c-57.16149,0 -130.01436,191.65911 -73.97369,197.26317c6.72488,1.12081 21.29546,2.24163 30.26196,3.36244c8.96651,0 16.8122,7.84569 16.8122,16.8122c0,19.05383 24.6579,29.14115 73.97369,29.14115c21.29546,0 38.10766,4.48325 38.10766,10.08732c0,5.60407 13.44976,12.32895 31.38278,15.69139c79.57776,16.8122 100.87321,24.6579 141.2225,53.79905c24.6579,17.93302 50.43661,32.50359 57.16149,32.50359c5.60407,0 17.93302,10.08732 25.77871,22.41627c7.84569,12.32895 21.29546,22.41627 30.26196,22.41627c21.29546,0 41.4701,40.34929 45.95335,89.66508c2.24163,21.29546 8.96651,50.43661 15.69139,65.00718c32.50359,71.73206 38.10766,80.69857 49.31579,77.33613c6.72488,-2.24163 16.8122,-23.53708 22.41627,-48.19498c5.60407,-23.53708 13.44976,-45.95335 16.8122,-49.31579c4.48325,-3.36244 15.69139,-19.05383 26.89952,-35.86603c19.05383,-30.26196 75.0945,-44.83254 75.0945,-20.17464c0,6.72488 8.96651,11.20813 20.17464,11.20813c26.89952,0 86.30264,62.76556 107.59809,112.08135c33.6244,78.45694 98.63159,123.28948 126.65192,87.42345zm664.6424,-771.11968c0,-5.60407 -5.60407,-11.20813 -12.32895,-11.20813c-5.60407,0 -7.84569,5.60407 -4.48325,11.20813c3.36244,6.72488 8.96651,11.20813 12.32895,11.20813c2.24163,0 4.48325,-4.48325 4.48325,-11.20813zm-2017.46428,-198.38399c8.96651,-25.77871 21.29546,-50.43661 25.77871,-56.04067c5.60407,-4.48325 86.30264,-11.20813 179.33016,-14.57058l170.36365,-5.60407l0,-106.47728c0,-99.7524 -1.12081,-106.47728 -22.41627,-104.23565c-36.98685,2.24163 -226.40432,56.04067 -294.77395,81.81938c-140.10169,53.79905 -146.82657,58.2823 -159.15552,95.26915c-16.8122,50.43661 -2.24163,125.53111 26.89952,146.82657c35.86603,24.6579 54.91986,14.57058 73.97369,-36.98685zm1704.75732,-38.10766c11.20813,-13.44976 23.53708,-34.74522 28.02034,-47.07417c4.48325,-12.32895 15.69139,-32.50359 26.89952,-43.71173c16.8122,-17.93302 26.89952,-19.05383 96.38996,-8.96651c98.63159,13.44976 94.14833,13.44976 94.14833,-3.36244c0,-8.96651 -35.86603,-29.14115 -80.69857,-45.95335c-44.83254,-16.8122 -107.59809,-40.34929 -137.86006,-52.67823c-31.38278,-11.20813 -61.64474,-21.29546 -67.24881,-21.29546c-6.72488,0 -35.86603,17.93302 -66.128,39.22847c-30.26196,21.29546 -63.88637,39.22847 -73.97369,39.22847c-10.08732,0 -22.41627,3.36244 -26.89952,8.96651c-4.48325,4.48325 -13.44976,7.84569 -19.05383,7.84569c-5.60407,0 -10.08732,3.36244 -10.08732,8.96651c0,4.48325 0,13.44976 0,19.05383c0,6.72488 6.72488,11.20813 15.69139,11.20813c8.96651,0 23.53708,8.96651 31.38278,20.17464c7.84569,10.08732 34.74522,35.86603 59.40311,56.04067c52.67823,42.59091 99.7524,47.07417 130.01436,12.32895zm-979.59099,-71.73206c7.84569,-24.6579 20.17464,-56.04067 28.02034,-70.61125c10.08732,-19.05383 10.08732,-33.6244 0,-62.76556c-7.84569,-20.17464 -14.57058,-63.88637 -14.57058,-97.51077c-1.12081,-65.00718 -17.93302,-147.94738 -20.17464,-103.11484c-1.12081,33.6244 -51.55742,48.19498 -162.51796,48.19498c-135.61843,0 -136.73925,1.12081 -138.98087,174.8469c-2.24163,105.35647 1.12081,145.70575 11.20813,152.43063c7.84569,5.60407 75.0945,7.84569 147.94738,6.72488l133.37681,-3.36244l15.69139,-44.83254zm773.36131,-132.25599c17.93302,-162.51796 16.8122,-221.92107 -2.24163,-243.21653c-11.20813,-12.32895 -24.6579,-22.41627 -31.38278,-22.41627c-10.08732,0 -5.60407,133.37681 10.08732,246.57897c7.84569,56.04067 19.05383,65.00718 23.53708,19.05383zm438.23807,4.48325c8.96651,-59.40311 -39.22847,-132.25599 -181.57179,-279.08256c-96.38996,-97.51077 -101.99403,-106.47728 -101.99403,-151.30982l0,-47.07417l-62.76556,-3.36244c-85.18183,-4.48325 -122.16867,23.53708 -122.16867,93.02752c0,41.4701 5.60407,52.67823 39.22847,82.9402c22.41627,19.05383 47.07417,34.74522 54.91986,34.74522c16.8122,0 115.44379,146.82657 125.53111,186.05504c4.48325,15.69139 23.53708,31.38278 52.67823,43.71173c25.77871,10.08732 75.0945,30.26196 108.71891,44.83254c71.73206,30.26196 82.9402,29.14115 87.42345,-4.48325zm-328.39835,-31.38278c56.04067,-26.89952 57.16149,-48.19498 8.96651,-127.77274c-62.76556,-103.11484 -70.61125,-99.7524 -70.61125,33.6244c0,65.00718 4.48325,113.20216 11.20813,113.20216c5.60407,0 28.02034,-8.96651 50.43661,-19.05383z"/>
    <path stroke="null" d="m944.33068,1685.16335c-20.17464,-32.50359 -22.41627,-42.59091 -11.20813,-56.04067c21.29546,-25.77871 28.02034,-20.17464 28.02034,17.93302c0,21.29546 7.84569,40.34929 19.05383,47.07417c26.89952,16.8122 39.22847,1.12081 17.93302,-22.41627c-20.17464,-23.53708 -22.41627,-58.2823 -4.48325,-60.52393c47.07417,-5.60407 85.18183,19.05383 85.18183,53.79905c0,23.53708 -47.07417,59.40311 -79.57776,59.40311c-23.53708,0 -36.98685,-10.08732 -54.91986,-39.22847z"/>
    <path stroke="null" d="m1650.44318,197.84385c-1.12081,-5.60407 -3.36244,-15.69139 -4.48325,-22.41627c0,-7.84569 -15.69139,-15.69139 -34.74522,-17.93302c-31.38278,-3.36244 -33.6244,-5.60407 -31.38278,-50.43661c0,-25.77871 -2.24163,-49.31579 -7.84569,-52.67823c-13.44976,-8.96651 -17.93302,-54.91986 -5.60407,-57.16149c6.72488,-2.24163 14.57058,11.20813 17.93302,30.26196c5.60407,26.89952 7.84569,29.14115 14.57058,13.44976c11.20813,-24.6579 29.14115,-26.89952 29.14115,-3.36244c0,8.96651 -7.84569,16.8122 -16.8122,16.8122c-10.08732,0 -16.8122,10.08732 -16.8122,28.02034c0,19.05383 5.60407,28.02034 20.17464,28.02034c33.6244,0 48.19498,-22.41627 33.6244,-49.31579c-6.72488,-13.44976 -12.32895,-24.6579 -11.20813,-25.77871c8.96651,-13.44976 -2.24163,-25.77871 -20.17464,-25.77871c-12.32895,0 -22.41627,-4.48325 -22.41627,-11.20813c0,-6.72488 33.6244,-11.20813 77.33613,-11.20813c43.71173,0 81.81938,5.60407 85.18183,11.20813c4.48325,6.72488 -6.72488,11.20813 -25.77871,11.20813c-43.71173,0 -57.16149,47.07417 -20.17464,71.73206c13.44976,8.96651 19.05383,19.05383 13.44976,24.6579c-5.60407,5.60407 -12.32895,4.48325 -14.57058,-3.36244c-3.36244,-7.84569 -14.57058,-14.57058 -26.89952,-14.57058c-33.6244,0 -21.29546,48.19498 13.44976,50.43661c14.57058,1.12081 30.26196,-2.24163 33.6244,-7.84569c3.36244,-5.60407 13.44976,-2.24163 21.29546,7.84569c12.32895,14.57058 7.84569,16.8122 -36.98685,16.8122c-43.71173,0 -51.55742,3.36244 -56.04067,25.77871c-2.24163,13.44976 -5.60407,21.29546 -7.84569,16.8122zm-16.8122,-65.00718c3.36244,-5.60407 -3.36244,-11.20813 -15.69139,-11.20813c-13.44976,0 -23.53708,5.60407 -23.53708,11.20813c0,6.72488 6.72488,11.20813 15.69139,11.20813c8.96651,0 20.17464,-4.48325 23.53708,-11.20813zm45.95335,-89.66508c0,-17.93302 -3.36244,-33.6244 -8.96651,-33.6244c-4.48325,0 -8.96651,15.69139 -8.96651,33.6244c0,19.05383 4.48325,33.6244 8.96651,33.6244c5.60407,0 8.96651,-14.57058 8.96651,-33.6244z"/>
    <path stroke="null" d="m490.40122,177.66921c-39.22847,-6.72488 -36.98685,-12.32895 8.96651,-15.69139c6.72488,-1.12081 17.93302,-7.84569 22.41627,-15.69139c6.72488,-11.20813 12.32895,-10.08732 25.77871,3.36244c10.08732,8.96651 22.41627,14.57058 28.02034,11.20813c5.60407,-4.48325 19.05383,-1.12081 29.14115,4.48325c17.93302,10.08732 15.69139,11.20813 -10.08732,12.32895c-15.69139,0 -35.86603,2.24163 -44.83254,4.48325c-7.84569,1.12081 -34.74522,0 -59.40311,-4.48325z"/>
    <path stroke="null" d="m717.92636,181.03165c-29.14115,-3.36244 -43.71173,-11.20813 -48.19498,-26.89952c-10.08732,-32.50359 0,-36.98685 25.77871,-14.57058c19.05383,16.8122 63.88637,22.41627 123.28948,16.8122c6.72488,0 13.44976,-8.96651 13.44976,-17.93302c0,-8.96651 4.48325,-16.8122 10.08732,-16.8122c4.48325,0 6.72488,12.32895 3.36244,28.02034c-3.36244,20.17464 -12.32895,28.02034 -30.26196,28.02034c-14.57058,0 -32.50359,1.12081 -41.4701,3.36244c-7.84569,2.24163 -33.6244,2.24163 -56.04067,0z"/>
    <path stroke="null" d="m903.98139,169.82352c3.36244,-7.84569 1.12081,-16.8122 -4.48325,-20.17464c-16.8122,-10.08732 -13.44976,-28.02034 5.60407,-28.02034c8.96651,0 23.53708,14.57058 32.50359,32.50359c16.8122,31.38278 16.8122,32.50359 -10.08732,30.26196c-16.8122,0 -25.77871,-6.72488 -23.53708,-14.57058z"/>
    <path stroke="null" d="m983.55915,181.03165c12.32895,-3.36244 29.14115,-11.20813 36.98685,-17.93302c10.08732,-7.84569 20.17464,-6.72488 33.6244,6.72488c16.8122,17.93302 14.57058,19.05383 -36.98685,17.93302c-31.38278,-1.12081 -45.95335,-4.48325 -33.6244,-6.72488z"/>
    <path stroke="null" d="m1128.14409,173.18596c-13.44976,-35.86603 0,-68.36962 32.50359,-71.73206c41.4701,-4.48325 39.22847,-24.6579 -3.36244,-24.6579c-17.93302,0 -33.6244,-4.48325 -33.6244,-11.20813c0,-5.60407 12.32895,-11.20813 28.02034,-11.20813c15.69139,0 28.02034,-4.48325 28.02034,-8.96651c0,-15.69139 -25.77871,-35.86603 -47.07417,-35.86603c-11.20813,0 -20.17464,-4.48325 -20.17464,-11.20813c0,-19.05383 39.22847,-12.32895 65.00718,11.20813c13.44976,13.44976 24.6579,28.02034 24.6579,33.6244c0,6.72488 15.69139,11.20813 33.6244,11.20813c25.77871,0 33.6244,-4.48325 33.6244,-22.41627c0,-12.32895 -4.48325,-22.41627 -11.20813,-22.41627c-5.60407,0 -11.20813,-5.60407 -11.20813,-12.32895c0,-28.02034 39.22847,-1.12081 45.95335,31.38278c8.96651,43.71173 5.60407,48.19498 -42.59091,48.19498c-20.17464,0 -36.98685,5.60407 -36.98685,11.20813c0,6.72488 17.93302,11.20813 39.22847,11.20813c38.10766,0 39.22847,1.12081 39.22847,44.83254l0,44.83254l-78.45694,0c-58.2823,0 -80.69857,-4.48325 -85.18183,-15.69139zm69.49044,-29.14115c-1.12081,-25.77871 -5.60407,-33.6244 -24.6579,-33.6244c-19.05383,0 -22.41627,5.60407 -20.17464,31.38278c3.36244,38.10766 1.12081,35.86603 25.77871,35.86603c15.69139,0 20.17464,-7.84569 19.05383,-33.6244zm68.36962,0c0,-24.6579 -5.60407,-33.6244 -21.29546,-33.6244c-14.57058,0 -20.17464,8.96651 -20.17464,33.6244c0,24.6579 5.60407,33.6244 20.17464,33.6244c15.69139,0 21.29546,-8.96651 21.29546,-33.6244z"/>
    <path stroke="null" d="m1379.20631,181.03165c25.77871,-2.24163 47.07417,-10.08732 47.07417,-16.8122c0,-6.72488 -20.17464,-31.38278 -44.83254,-56.04067c-24.6579,-24.6579 -44.83254,-47.07417 -44.83254,-49.31579c0,-13.44976 26.89952,0 50.43661,24.6579l28.02034,30.26196l0,-63.88637c0,-35.86603 4.48325,-61.64474 8.96651,-58.2823c5.60407,3.36244 7.84569,34.74522 5.60407,70.61125c-5.60407,87.42345 11.20813,118.80623 60.52393,113.20216c20.17464,-2.24163 36.98685,0 36.98685,4.48325c0,4.48325 -43.71173,7.84569 -97.51077,6.72488c-54.91986,-1.12081 -77.33613,-3.36244 -50.43661,-5.60407z"/>
    <path stroke="null" d="m2032.64058,158.61538c0,-21.29546 -6.72488,-36.98685 -14.57058,-36.98685c-11.20813,0 -10.08732,-3.36244 1.12081,-10.08732c10.08732,-6.72488 13.44976,-22.41627 10.08732,-44.83254c-5.60407,-39.22847 7.84569,-44.83254 42.59091,-16.8122c20.17464,15.69139 20.17464,16.8122 -5.60407,8.96651c-24.6579,-6.72488 -26.89952,-4.48325 -21.29546,30.26196c2.24163,21.29546 1.12081,53.79905 -3.36244,71.73206l-7.84569,33.6244l-1.12081,-35.86603z"/>
    <path stroke="null" d="m2087.56044,166.46108c0,-5.60407 7.84569,-11.20813 17.93302,-11.20813c25.77871,0 14.57058,-77.33613 -17.93302,-123.28948c-13.44976,-19.05383 -21.29546,-38.10766 -17.93302,-41.4701c3.36244,-4.48325 7.84569,-4.48325 10.08732,-2.24163c1.12081,2.24163 13.44976,20.17464 28.02034,40.34929c15.69139,23.53708 24.6579,52.67823 24.6579,81.81938c0,36.98685 3.36244,44.83254 21.29546,44.83254c14.57058,0 23.53708,-11.20813 28.02034,-38.10766c6.72488,-38.10766 -10.08732,-96.38996 -29.14115,-96.38996c-4.48325,0 -8.96651,-7.84569 -8.96651,-16.8122c0,-24.6579 19.05383,-20.17464 38.10766,7.84569c12.32895,16.8122 17.93302,50.43661 17.93302,95.26915l0,70.61125l-56.04067,0c-30.26196,0 -56.04067,-4.48325 -56.04067,-11.20813z"/>
    <path stroke="null" d="m980.19671,142.92399c-45.95335,-8.96651 -118.80623,-88.54427 -80.69857,-88.54427c6.72488,0 11.20813,5.60407 11.20813,11.20813c0,6.72488 5.60407,11.20813 11.20813,11.20813c20.17464,0 11.20813,-44.83254 -11.20813,-58.2823c-26.89952,-16.8122 -29.14115,-31.38278 -5.60407,-31.38278c23.53708,0 39.22847,35.86603 39.22847,88.54427c0,43.71173 2.24163,45.95335 33.6244,45.95335c30.26196,0 32.50359,-2.24163 22.41627,-26.89952c-5.60407,-14.57058 -6.72488,-36.98685 -3.36244,-49.31579c2.24163,-12.32895 0,-25.77871 -6.72488,-29.14115c-7.84569,-5.60407 -12.32895,4.48325 -12.32895,26.89952c0,45.95335 -17.93302,33.6244 -20.17464,-13.44976l-1.12081,-36.98685l65.00718,3.36244l65.00718,4.48325l-12.32895,39.22847l-12.32895,38.10766l-6.72488,-36.98685l-6.72488,-36.98685l-2.24163,36.98685c0,19.05383 -5.60407,35.86603 -12.32895,35.86603c-5.60407,0 -11.20813,10.08732 -11.20813,22.41627c0,17.93302 7.84569,22.41627 34.74522,22.41627c17.93302,0 31.38278,4.48325 28.02034,10.08732c-8.96651,14.57058 -62.76556,20.17464 -105.35647,11.20813zm39.22847,-113.20216c-3.36244,-8.96651 -6.72488,-5.60407 -6.72488,6.72488c-1.12081,12.32895 2.24163,19.05383 5.60407,14.57058c3.36244,-3.36244 4.48325,-13.44976 1.12081,-21.29546z"/>
    <path stroke="null" d="m483.67634,99.21227l-4.48325,-50.43661l59.40311,1.12081c31.38278,0 58.2823,4.48325 58.2823,7.84569c0,4.48325 0,26.89952 0,49.31579c0,32.50359 -3.36244,38.10766 -13.44976,28.02034c-17.93302,-17.93302 -84.06101,-16.8122 -90.78589,1.12081c-2.24163,6.72488 -6.72488,-8.96651 -8.96651,-36.98685zm101.99403,-5.60407c0,-12.32895 -12.32895,-16.8122 -44.83254,-16.8122c-32.50359,0 -44.83254,4.48325 -44.83254,16.8122c0,12.32895 12.32895,16.8122 44.83254,16.8122c32.50359,0 44.83254,-4.48325 44.83254,-16.8122z"/>
    <path stroke="null" d="m720.16798,129.47423c0,-8.96651 7.84569,-19.05383 16.8122,-23.53708c8.96651,-3.36244 16.8122,-3.36244 16.8122,0c0,3.36244 -7.84569,13.44976 -16.8122,22.41627c-14.57058,14.57058 -16.8122,14.57058 -16.8122,1.12081z"/>
    <path stroke="null" d="m775.08784,124.99098c-5.60407,-65.00718 -45.95335,-115.44379 -89.66508,-115.44379c-11.20813,0 -21.29546,-4.48325 -21.29546,-11.20813c0,-24.6579 82.9402,3.36244 101.99403,35.86603c7.84569,11.20813 12.32895,11.20813 23.53708,-3.36244c7.84569,-8.96651 23.53708,-23.53708 34.74522,-31.38278c15.69139,-12.32895 19.05383,-12.32895 19.05383,1.12081c0,8.96651 -13.44976,22.41627 -29.14115,30.26196c-25.77871,11.20813 -29.14115,17.93302 -24.6579,57.16149c2.24163,24.6579 0,44.83254 -4.48325,44.83254c-5.60407,0 -8.96651,-3.36244 -10.08732,-7.84569z"/>
    <path stroke="null" d="m1464.38814,104.81633c10.08732,-10.08732 22.41627,-25.77871 26.89952,-35.86603c5.60407,-8.96651 16.8122,-15.69139 23.53708,-13.44976c16.8122,5.60407 -32.50359,66.128 -53.79905,66.128c-10.08732,0 -8.96651,-4.48325 3.36244,-16.8122z"/>
    <path stroke="null" d="m686.54358,100.33308c0,-5.60407 6.72488,-12.32895 14.57058,-15.69139c7.84569,-3.36244 2.24163,-10.08732 -14.57058,-16.8122c-19.05383,-7.84569 -21.29546,-12.32895 -8.96651,-12.32895c10.08732,-1.12081 22.41627,4.48325 26.89952,11.20813c4.48325,8.96651 10.08732,7.84569 16.8122,-2.24163c7.84569,-12.32895 10.08732,-12.32895 10.08732,-1.12081c0,14.57058 -25.77871,47.07417 -38.10766,47.07417c-3.36244,0 -6.72488,-4.48325 -6.72488,-10.08732z"/>
    <path stroke="null" d="m1784.9408,99.21227c0,-6.72488 36.98685,-11.20813 89.66508,-11.20813c52.67823,0 89.66508,4.48325 89.66508,11.20813c0,6.72488 -36.98685,11.20813 -89.66508,11.20813c-52.67823,0 -89.66508,-4.48325 -89.66508,-11.20813z"/>
    <path stroke="null" d="m1717.69199,43.17159c-14.57058,-8.96651 -13.44976,-11.20813 3.36244,-11.20813c10.08732,0 19.05383,5.60407 19.05383,11.20813c0,13.44976 -1.12081,13.44976 -22.41627,0z"/>
    <path stroke="null" d="m492.64284,27.4802c-8.96651,-10.08732 -22.41627,-17.93302 -29.14115,-17.93302c-6.72488,0 -12.32895,-4.48325 -12.32895,-11.20813c0,-5.60407 7.84569,-11.20813 16.8122,-11.20813c8.96651,0 16.8122,4.48325 16.8122,10.08732c0,5.60407 10.08732,12.32895 22.41627,14.57058c14.57058,2.24163 19.05383,7.84569 12.32895,17.93302c-7.84569,12.32895 -12.32895,12.32895 -26.89952,-2.24163z"/>
    <path stroke="null" d="m558.77084,26.35939c4.48325,-8.96651 13.44976,-16.8122 21.29546,-16.8122c7.84569,0 16.8122,-6.72488 20.17464,-13.44976c2.24163,-7.84569 8.96651,-10.08732 14.57058,-5.60407c5.60407,5.60407 -1.12081,19.05383 -16.8122,31.38278c-31.38278,25.77871 -47.07417,28.02034 -39.22847,4.48325z"/>
   </g>
  </g>
 </g>

</svg>